<svg xmlns="http://www.w3.org/2000/svg" viewBox="0 0 700 700">
  <path fill="#0077b6" d="M265.4 510.724c-14.905 0-28.987-5.967-39.632-16.806a57.808 57.808 0 0 1-14.675-25.977l-1.019-3.937h-23.457c-13.165 0-23.838-10.673-23.838-23.838v-60.088c0-5.587 4.142-10.478 9.7-10.997 6.383-.602 11.766 4.428 11.766 10.682v58.356a4.418 4.418 0 0 0 4.42 4.419h21.437l1.019-3.928a59.366 59.366 0 0 1 2.335-7.124c8.69-21.642 29.118-35.622 52.038-35.622h.213c14.702 0 29.118 6.087 39.55 16.713a57.487 57.487 0 0 1 14.665 26.005l1.01 3.956h62.293l.547-.111a10.998 10.998 0 0 1 2.205-.232H491.33a4.418 4.418 0 0 0 4.42-4.419V225.918l-134.39 114.37c-6.16 5.243-13.489 8.013-21.187 8.013-7.7 0-15.324-2.881-21.55-8.338L184.246 222.38v62.868c0 5.586-4.141 10.478-9.7 10.996-6.383.602-11.766-4.428-11.766-10.681v-72.726c0-13.164 10.673-23.837 23.838-23.837h306.761c13.165 0 23.838 10.673 23.838 23.837v17.306h60.301v.083l5.327-.074h.862c15.425 0 30.48 6.43 41.3 17.63 10.757 11.136 12.637 23.875 16.686 41.579l8.653 48.897.11.575.029.092 10.524 58.81.584 10.506c-1.121 14.11-6.995 27.247-16.843 37.447-7.828 8.106-17.732 13.767-28.636 16.37l-3.196.76-.714 3.205c-3.974 17.936-16.286 32.935-32.953 40.124-7.032 3.039-14.434 4.577-21.984 4.577-14.907 0-28.989-5.967-39.633-16.806a57.716 57.716 0 0 1-14.75-26.264l-1.167-4.614-4.697.713a23.877 23.877 0 0 1-3.631.278H320.913l-1.02 3.947c-4.446 17.287-16.286 31.212-32.49 38.206-7.03 3.039-14.433 4.577-21.984 4.577Zm.15-93.394c-12.313 0-23.458 6.466-29.795 17.305a37.388 37.388 0 0 0-2.381 4.855c-4.252 10.58-3.363 22.707 2.38 32.435a36.123 36.123 0 0 0 5.328 6.948c6.55 6.67 15.212 10.348 24.393 10.348a33.71 33.71 0 0 0 13.406-2.78c6.874-2.964 12.534-7.985 16.37-14.526 3.326-5.679 5.058-12.22 5.012-18.908v-.102c-.019-6.356-1.742-12.692-4.975-18.251a35.38 35.38 0 0 0-5.346-7.032c-6.522-6.633-15.147-10.292-24.291-10.292h-.24.138Zm291.79-.019c-14.073 0-26.7 8.7-32.11 22.16-5.467 13.6-2.437 29.054 7.717 39.383 6.55 6.67 15.221 10.349 24.393 10.349 4.613 0 9.125-.936 13.405-2.78 12.989-5.605 21.373-18.621 21.373-33.166v-.63c-.12-9.348-3.882-18.473-10.311-25.023-6.522-6.633-15.147-10.284-24.291-10.284h-.167Zm.222-21.465c14.703 0 29.118 6.086 39.559 16.712 6.41 6.532 11.052 14.258 13.785 22.976l1.798 5.725 5.438-2.538a37.564 37.564 0 0 0 11.163-7.967c6.782-7.023 10.691-16.361 10.988-26.283l.018-.547-8.986-50.204a2.822 2.822 0 0 0-2.78-2.325h-111.31v60.302l8.263-5.79c9.376-6.578 20.39-10.052 31.85-10.052h.214Zm-38.104-65.926h104.946a2.25 2.25 0 0 0 2.224-2.612l-6.439-39.967c-1.9-10.126-4.261-18.084-10.626-24.67-6.81-7.05-16.231-11.09-25.866-11.09h-64.239a2.254 2.254 0 0 0-2.252 2.251v73.819a2.254 2.254 0 0 0 2.252 2.25Zm-187.122-5.614c2.335 2.048 5.049 3.122 7.838 3.122 2.788 0 5.391-1.037 7.689-2.992l133.907-113.97H202.255l130.081 113.84Z"/>
  <path fill="#0077b6" d="M95.594 343.076c-5.744 0-10.413-4.67-10.413-10.413 0-5.744 4.67-10.414 10.413-10.414h118.223c5.744 0 10.413 4.67 10.413 10.414 0 5.743-4.67 10.413-10.413 10.413H95.594ZM47.716 283.923c-5.744 0-10.413-4.67-10.413-10.413 0-5.744 4.67-10.414 10.413-10.414h76.209c5.744 0 10.413 4.67 10.413 10.414 0 5.743-4.67 10.413-10.413 10.413H47.716ZM76 402.229c-5.744 0-10.413-4.67-10.413-10.413 0-5.744 4.67-10.414 10.413-10.414h47.925c5.744 0 10.413 4.67 10.413 10.414 0 5.743-4.67 10.413-10.413 10.413H76Z"/>
</svg>
